<?xml version="1.0" standalone="no"?>
<!DOCTYPE svg PUBLIC "-//W3C//DTD SVG 20010904//EN"
 "http://www.w3.org/TR/2001/REC-SVG-20010904/DTD/svg10.dtd">
<svg version="1.0" xmlns="http://www.w3.org/2000/svg"
 width="200.000000pt" height="200.000000pt" viewBox="0 0 200.000000 200.000000"
 preserveAspectRatio="xMidYMid meet">
<metadata>
Created by potrace 1.11, written by Peter Selinger 2001-2013
</metadata>
<g transform="translate(0.000000,200.000000) scale(0.100000,-0.100000)"
fill="#000000" stroke="none">
<path d="M940 1692 c-213 -12 -442 -120 -591 -278 -140 -150 -236 -366 -242
-549 l-2 -70 899 0 899 0 -6 75 c-8 86 -9 95 -32 174 -100 344 -418 613 -758
642 -95 8 -118 9 -167 6z"/>
<path d="M337 763 c-10 -16 1 -150 14 -171 26 -42 84 -56 131 -31 30 16 45 61
44 134 -1 65 -3 70 -23 73 -26 4 -25 8 -28 -76 -3 -66 -16 -92 -45 -92 -29 0
-40 24 -43 96 -3 61 -6 69 -24 72 -12 2 -23 0 -26 -5z"/>
<path d="M633 753 c-7 -14 -9 -122 -4 -191 1 -8 10 -12 24 -10 16 2 23 11 25
31 5 40 45 38 62 -4 9 -22 18 -29 34 -27 15 2 20 9 18 23 -4 24 -4 69 -1 113
4 51 -29 78 -96 81 -43 2 -55 -1 -62 -16z m91 -39 c23 -9 20 -41 -4 -49 -27
-9 -40 1 -40 31 0 24 13 30 44 18z"/>
<path d="M894 757 c-3 -8 -3 -56 -2 -108 l3 -94 61 -3 c70 -3 104 16 104 58
-2 102 -6 123 -29 141 -28 23 -128 27 -137 6z m101 -51 c18 -13 18 -14 -3 -20
-29 -10 -30 -46 -1 -46 14 0 19 -5 17 -17 -2 -12 -13 -18 -33 -18 -29 0 -30 1
-31 50 0 28 1 53 3 58 6 11 27 8 48 -7z"/>
<path d="M1243 758 c-30 -49 -90 -184 -86 -195 8 -22 43 -15 55 11 9 20 18 25
50 24 32 0 42 -5 50 -24 12 -26 45 -32 54 -10 3 7 -12 49 -32 92 -50 107 -72
131 -91 102z m30 -98 c4 -15 0 -20 -14 -20 -17 0 -18 3 -9 20 6 11 12 20 14
20 2 0 6 -9 9 -20z"/>
<path d="M1469 763 c-6 -29 -4 -195 1 -204 4 -6 16 -9 26 -7 15 3 19 13 20 53
1 28 2 54 3 60 0 5 21 -19 46 -53 44 -60 77 -79 88 -49 3 10 2 174 -2 200 0 4
-10 7 -21 7 -21 0 -22 -2 -25 -60 -2 -19 -3 -41 -4 -49 0 -8 -22 13 -47 47
-28 38 -53 62 -65 62 -10 0 -20 -3 -20 -7z"/>
<path d="M353 523 c-7 -2 -13 -11 -13 -19 0 -15 74 -169 91 -190 19 -24 39 -2
86 92 43 87 46 96 31 110 -22 23 -32 14 -64 -61 -16 -36 -31 -65 -34 -65 -4 0
-21 32 -39 70 -17 39 -35 70 -39 69 -4 0 -13 -3 -19 -6z"/>
<path d="M587 523 c-13 -13 -8 -211 6 -216 32 -11 37 5 37 108 0 85 -3 104
-16 109 -19 7 -19 7 -27 -1z"/>
<path d="M664 518 c-9 -15 -11 -186 -2 -201 6 -10 111 -18 136 -9 6 2 12 13
12 23 0 16 -8 19 -50 19 l-50 0 0 84 c0 67 -3 85 -16 90 -21 8 -22 8 -30 -6z"/>
<path d="M836 507 c-9 -45 -3 -187 7 -194 15 -9 124 -11 138 -2 7 4 9 14 6 23
-5 11 -19 16 -52 16 -25 0 -45 3 -46 8 0 4 -2 39 -2 79 -1 39 -6 75 -10 79
-16 16 -37 11 -41 -9z"/>
<path d="M1103 522 c-6 -4 -32 -50 -57 -102 -44 -89 -45 -96 -29 -108 16 -11
21 -10 38 13 16 20 30 25 63 25 23 0 42 -4 42 -9 0 -17 30 -40 45 -35 23 9 19
27 -30 123 -47 95 -54 104 -72 93z m13 -124 c-15 -10 -19 -3 -10 24 7 22 7 22
14 3 4 -11 3 -23 -4 -27z"/>
<path d="M1293 510 c-78 -47 -75 -153 7 -195 30 -16 76 -13 112 6 16 8 18 19
16 62 l-3 52 -42 3 c-23 1 -44 -2 -48 -8 -8 -13 14 -42 25 -35 15 9 22 -15 10
-30 -21 -26 -80 12 -80 52 0 26 32 63 52 59 7 -1 24 -6 37 -10 16 -6 26 -4 32
5 14 23 10 35 -16 47 -37 17 -65 15 -102 -8z"/>
<path d="M1461 516 c-10 -14 -9 -191 2 -202 12 -12 147 -12 155 0 9 16 11 36
4 37 -6 2 -28 3 -99 8 -7 1 -13 8 -13 16 0 11 11 15 39 15 30 0 40 4 44 20 6
24 0 28 -47 32 -26 1 -36 6 -34 17 2 12 14 15 49 13 51 -4 83 18 60 41 -15 15
-149 17 -160 3z"/>
</g>
</svg>
